<svg id="outlines" xmlns="http://www.w3.org/2000/svg" viewBox="0 0 670.13 206.7"><defs><style>.cls-1{fill:#231f20;}.cls-2{fill:#fff;}.cls-3{fill:#f8a29d;}.cls-4{fill:#fcdbd9;}.cls-5{fill:#f2564d;}.cls-6{fill:#733ca6;}</style></defs><title>oss</title><path class="cls-1" d="M181.16,91.72h11.55a6.92,6.92,0,0,1,2.6.46,6,6,0,0,1,2,1.28,5.5,5.5,0,0,1,1.26,1.89,6,6,0,0,1,.43,2.28,6.44,6.44,0,0,1-.79,3.27,5,5,0,0,1-2.6,2.1v.06a3.63,3.63,0,0,1,1.44.73A4,4,0,0,1,198,105a5.67,5.67,0,0,1,.53,1.48,12.46,12.46,0,0,1,.22,1.61q0,.51.06,1.2c0,.46.06.92.11,1.39a10,10,0,0,0,.24,1.37,3.14,3.14,0,0,0,.49,1.11H194.9a5.33,5.33,0,0,1-.31-1.13c-.07-.41-.14-.84-.18-1.29s-.09-.91-.12-1.38-.08-.91-.14-1.33a4.25,4.25,0,0,0-1-2.46,3.51,3.51,0,0,0-2.55-.78h-4.71v8.37h-4.71Zm4.71,9.69H191a3.59,3.59,0,0,0,2.42-.72,3,3,0,0,0,.82-2.34,2.84,2.84,0,0,0-.82-2.27,3.64,3.64,0,0,0-2.42-.7h-5.16Z"/><path class="cls-1" d="M205.52,106.42a4.31,4.31,0,0,0,1,3,4.32,4.32,0,0,0,5,.3,2.67,2.67,0,0,0,1.14-1.36h3.75a7.26,7.26,0,0,1-2.76,4,8,8,0,0,1-4.5,1.23,8.66,8.66,0,0,1-3.3-.6,7,7,0,0,1-2.49-1.68,7.5,7.5,0,0,1-1.58-2.58,9.44,9.44,0,0,1-.55-3.3,9,9,0,0,1,.57-3.24A7.47,7.47,0,0,1,206,97.84a8.06,8.06,0,0,1,3.23-.63,7.37,7.37,0,0,1,3.45.76A6.88,6.88,0,0,1,215,100a8.45,8.45,0,0,1,1.37,2.94,11,11,0,0,1,.3,3.45Zm6.93-2.7a4.93,4.93,0,0,0-1.07-2.46,3,3,0,0,0-2.32-.84,3.73,3.73,0,0,0-1.7.34,3.24,3.24,0,0,0-1.08.86,3.13,3.13,0,0,0-.57,1.08,4.85,4.85,0,0,0-.19,1Z"/><path class="cls-1" d="M218.69,102.4a5,5,0,0,1,.75-2.49,5.11,5.11,0,0,1,1.68-1.59,7.33,7.33,0,0,1,2.28-.86,13,13,0,0,1,2.58-.25,17.37,17.37,0,0,1,2.37.16,7.25,7.25,0,0,1,2.19.65,4.26,4.26,0,0,1,1.62,1.35,3.74,3.74,0,0,1,.63,2.25v8.07a16.21,16.21,0,0,0,.12,2,3.63,3.63,0,0,0,.42,1.44H229a4.73,4.73,0,0,1-.19-.74,4.8,4.8,0,0,1-.11-.76,5.67,5.67,0,0,1-2.4,1.48,9.33,9.33,0,0,1-2.82.44,7.24,7.24,0,0,1-2.07-.29,4.93,4.93,0,0,1-1.68-.85,3.8,3.8,0,0,1-1.12-1.44,4.72,4.72,0,0,1-.41-2.07,4.67,4.67,0,0,1,.45-2.18,3.68,3.68,0,0,1,1.2-1.36,5.55,5.55,0,0,1,1.69-.77,17.54,17.54,0,0,1,1.94-.4q1-.15,1.89-.24a11.23,11.23,0,0,0,1.61-.27,2.92,2.92,0,0,0,1.12-.53,1.22,1.22,0,0,0,.42-1,2.28,2.28,0,0,0-.23-1.1,1.58,1.58,0,0,0-.6-.63,2.36,2.36,0,0,0-.87-.3,7.07,7.07,0,0,0-1.06-.07,3.26,3.26,0,0,0-2,.54,2.38,2.38,0,0,0-.85,1.8Zm9.84,3.15a2,2,0,0,1-.67.37,7.92,7.92,0,0,1-.87.23q-.48.09-1,.15c-.36,0-.69.09-1,.15a6.73,6.73,0,0,0-1,.24,2.67,2.67,0,0,0-.79.4,1.8,1.8,0,0,0-.56.66,2.12,2.12,0,0,0-.21,1,2,2,0,0,0,.21,1,1.64,1.64,0,0,0,.57.6,2.41,2.41,0,0,0,.84.32,5.36,5.36,0,0,0,1,.09,3.77,3.77,0,0,0,1.95-.42,2.82,2.82,0,0,0,1-1,3,3,0,0,0,.4-1.18,8.34,8.34,0,0,0,.08-1Z"/><path class="cls-1" d="M246.29,103.09a2.86,2.86,0,0,0-3.15-2.67,3,3,0,0,0-1.71.46,3.71,3.71,0,0,0-1.13,1.2,5.2,5.2,0,0,0-.61,1.64,8.87,8.87,0,0,0-.18,1.74,8.43,8.43,0,0,0,.18,1.71,5.25,5.25,0,0,0,.58,1.57,3.39,3.39,0,0,0,1.1,1.16,3,3,0,0,0,1.68.45,3.13,3.13,0,0,0,2.34-.86,4,4,0,0,0,1.05-2.29h4.11a7.08,7.08,0,0,1-2.4,4.72,7.7,7.7,0,0,1-5.07,1.64,8.46,8.46,0,0,1-3.21-.59,7,7,0,0,1-2.46-1.65,7.61,7.61,0,0,1-1.59-2.52,8.66,8.66,0,0,1-.57-3.19,10.36,10.36,0,0,1,.52-3.35,7.54,7.54,0,0,1,1.55-2.67,7.06,7.06,0,0,1,2.49-1.75,8.46,8.46,0,0,1,3.36-.63,9.69,9.69,0,0,1,2.65.36,6.93,6.93,0,0,1,2.27,1.09,6.06,6.06,0,0,1,1.63,1.85,5.76,5.76,0,0,1,.74,2.58Z"/><path class="cls-1" d="M258,97.63h3.12v2.85H258v7.68a1.44,1.44,0,0,0,1.8,1.8,6.74,6.74,0,0,0,1.32-.12v3.33a10.14,10.14,0,0,1-1.2.12l-1.29,0a12.49,12.49,0,0,1-1.88-.14,4.24,4.24,0,0,1-1.56-.54,2.86,2.86,0,0,1-1.06-1.12,4,4,0,0,1-.39-1.89v-9.15h-2.58V97.63h2.58V93H258Z"/><path class="cls-1" d="M271.22,91.72h6.63l5,14.73h.06l4.74-14.73h6.63v21.42h-4.41V98h-.06l-5.25,15.18h-3.63l-5.25-15h-.06v15h-4.41Z"/><path class="cls-1" d="M297.14,105.4a9.55,9.55,0,0,1,.57-3.38,7.09,7.09,0,0,1,4.14-4.23,8.86,8.86,0,0,1,3.3-.58,9,9,0,0,1,3.31.58,7.05,7.05,0,0,1,4.16,4.23,9.55,9.55,0,0,1,.57,3.38,9.4,9.4,0,0,1-.57,3.36,7.09,7.09,0,0,1-4.16,4.21,9,9,0,0,1-3.31.59,8.86,8.86,0,0,1-3.3-.59,7.13,7.13,0,0,1-4.14-4.21A9.4,9.4,0,0,1,297.14,105.4Zm4.26,0a9,9,0,0,0,.18,1.81,4.83,4.83,0,0,0,.61,1.59,3.3,3.3,0,0,0,1.16,1.13,3.53,3.53,0,0,0,1.8.42,3.59,3.59,0,0,0,1.81-.42,3.25,3.25,0,0,0,1.17-1.13,4.84,4.84,0,0,0,.62-1.59,9,9,0,0,0,.18-1.81,9.31,9.31,0,0,0-.18-1.83,4.67,4.67,0,0,0-.62-1.59,3.42,3.42,0,0,0-1.17-1.13,3.49,3.49,0,0,0-1.81-.43,3.43,3.43,0,0,0-1.8.43,3.48,3.48,0,0,0-1.16,1.13,4.66,4.66,0,0,0-.61,1.59A9.31,9.31,0,0,0,301.4,105.4Z"/><path class="cls-1" d="M326.66,111.16h-.06a4.47,4.47,0,0,1-2,1.83,6.41,6.41,0,0,1-2.73.57,6.51,6.51,0,0,1-3.08-.69,6.34,6.34,0,0,1-2.16-1.85,8.28,8.28,0,0,1-1.29-2.65,11.14,11.14,0,0,1-.43-3.12,10.5,10.5,0,0,1,.43-3,7.81,7.81,0,0,1,1.29-2.56,6.46,6.46,0,0,1,2.15-1.79,6.38,6.38,0,0,1,3-.67,6.07,6.07,0,0,1,2.62.58,4.6,4.6,0,0,1,2,1.73h.06v-7.8h4.26v21.42h-4Zm-.06-5.82a9.31,9.31,0,0,0-.18-1.83,4.54,4.54,0,0,0-.62-1.58,3.4,3.4,0,0,0-1.14-1.09,3.3,3.3,0,0,0-1.72-.42,3.46,3.46,0,0,0-1.77.42A3.34,3.34,0,0,0,320,102a4.88,4.88,0,0,0-.63,1.57,8.6,8.6,0,0,0-.19,1.85,7.9,7.9,0,0,0,.21,1.8,4.88,4.88,0,0,0,.67,1.6,3.74,3.74,0,0,0,1.17,1.14,3.19,3.19,0,0,0,1.7.44,3.36,3.36,0,0,0,1.75-.42,3.22,3.22,0,0,0,1.13-1.13,5,5,0,0,0,.6-1.6A9.46,9.46,0,0,0,326.6,105.34Z"/><path class="cls-1" d="M348.11,113.14h-4.05V111H344a5,5,0,0,1-2.1,2,6,6,0,0,1-2.64.63,7.25,7.25,0,0,1-2.81-.47,4.14,4.14,0,0,1-1.72-1.29,5,5,0,0,1-.89-2,12.47,12.47,0,0,1-.25-2.62V97.63h4.26v8.76a5.31,5.31,0,0,0,.61,2.86,2.34,2.34,0,0,0,2.12,1,3,3,0,0,0,2.52-1,5.74,5.74,0,0,0,.78-3.4V97.63h4.26Z"/><path class="cls-1" d="M351.11,91.72h4.26v21.42h-4.26Z"/><path class="cls-1" d="M361.88,106.42a4.31,4.31,0,0,0,1.05,3,4.32,4.32,0,0,0,5,.3,2.67,2.67,0,0,0,1.14-1.36h3.75a7.26,7.26,0,0,1-2.76,4,8,8,0,0,1-4.5,1.23,8.66,8.66,0,0,1-3.3-.6,7,7,0,0,1-2.49-1.68,7.5,7.5,0,0,1-1.58-2.58,9.44,9.44,0,0,1-.55-3.3,9,9,0,0,1,.57-3.24,7.47,7.47,0,0,1,4.12-4.32,8.06,8.06,0,0,1,3.23-.63A7.37,7.37,0,0,1,369,98,6.88,6.88,0,0,1,371.4,100a8.45,8.45,0,0,1,1.37,2.94,11,11,0,0,1,.3,3.45Zm6.93-2.7a4.93,4.93,0,0,0-1.07-2.46,3,3,0,0,0-2.32-.84,3.73,3.73,0,0,0-1.7.34,3.24,3.24,0,0,0-1.08.86,3.13,3.13,0,0,0-.57,1.08,4.85,4.85,0,0,0-.19,1Z"/><path class="cls-1" d="M397.94,98.92a3.87,3.87,0,0,0-.54-1.49,4.71,4.71,0,0,0-1-1.18,4.87,4.87,0,0,0-3.09-1.08,5.5,5.5,0,0,0-2.7.61,5.1,5.1,0,0,0-1.8,1.65,7.27,7.27,0,0,0-1,2.36,11.72,11.72,0,0,0-.31,2.73,10.86,10.86,0,0,0,.31,2.62,7.13,7.13,0,0,0,1,2.3,5.14,5.14,0,0,0,1.8,1.63,5.5,5.5,0,0,0,2.7.62,4.32,4.32,0,0,0,3.37-1.34,6.14,6.14,0,0,0,1.49-3.46h4.56a10.89,10.89,0,0,1-.93,3.63,8.69,8.69,0,0,1-2,2.76,8.6,8.6,0,0,1-2.88,1.75,10.32,10.32,0,0,1-3.63.62,10.79,10.79,0,0,1-4.44-.87,9.68,9.68,0,0,1-3.3-2.37,10.4,10.4,0,0,1-2.07-3.54,13,13,0,0,1-.72-4.35,13.42,13.42,0,0,1,.72-4.44,10.67,10.67,0,0,1,2.07-3.6,9.5,9.5,0,0,1,3.3-2.4,11.51,11.51,0,0,1,7.78-.36,9,9,0,0,1,2.82,1.48,8.06,8.06,0,0,1,2.06,2.42,8.63,8.63,0,0,1,1,3.3Z"/><path class="cls-1" d="M404.6,105.4a9.55,9.55,0,0,1,.57-3.38,7.09,7.09,0,0,1,4.14-4.23,8.86,8.86,0,0,1,3.3-.58,9,9,0,0,1,3.31.58,7.05,7.05,0,0,1,4.16,4.23,9.55,9.55,0,0,1,.57,3.38,9.4,9.4,0,0,1-.57,3.36,7.09,7.09,0,0,1-4.16,4.21,9,9,0,0,1-3.31.59,8.86,8.86,0,0,1-3.3-.59,7.13,7.13,0,0,1-4.14-4.21A9.4,9.4,0,0,1,404.6,105.4Zm4.26,0a9,9,0,0,0,.18,1.81,4.83,4.83,0,0,0,.61,1.59,3.3,3.3,0,0,0,1.16,1.13,3.53,3.53,0,0,0,1.8.42,3.59,3.59,0,0,0,1.81-.42,3.25,3.25,0,0,0,1.17-1.13,4.84,4.84,0,0,0,.62-1.59,9,9,0,0,0,.18-1.81,9.31,9.31,0,0,0-.18-1.83,4.67,4.67,0,0,0-.62-1.59,3.42,3.42,0,0,0-1.17-1.13,3.49,3.49,0,0,0-1.81-.43,3.43,3.43,0,0,0-1.8.43,3.48,3.48,0,0,0-1.16,1.13,4.66,4.66,0,0,0-.61,1.59A9.31,9.31,0,0,0,408.86,105.4Z"/><path class="cls-1" d="M423.05,97.63h4.05v2.16h.09a5,5,0,0,1,2.1-2,6,6,0,0,1,2.64-.63,7.22,7.22,0,0,1,2.8.46A4.18,4.18,0,0,1,436.46,99a5,5,0,0,1,.88,2,12.54,12.54,0,0,1,.26,2.63v9.54h-4.26v-8.76a5.34,5.34,0,0,0-.62-2.87,2.32,2.32,0,0,0-2.11-.94,3,3,0,0,0-2.52,1,5.77,5.77,0,0,0-.78,3.41v8.13h-4.26Z"/><path class="cls-1" d="M445.88,97.63H449v2.85h-3.12v7.68a1.44,1.44,0,0,0,1.8,1.8,6.74,6.74,0,0,0,1.32-.12v3.33a10.14,10.14,0,0,1-1.2.12l-1.29,0a12.49,12.49,0,0,1-1.88-.14,4.24,4.24,0,0,1-1.56-.54,2.86,2.86,0,0,1-1.06-1.12,4,4,0,0,1-.39-1.89v-9.15H439V97.63h2.58V93h4.26Z"/><path class="cls-1" d="M450.5,102.4a5,5,0,0,1,.75-2.49,5.11,5.11,0,0,1,1.68-1.59,7.33,7.33,0,0,1,2.28-.86,13,13,0,0,1,2.58-.25,17.37,17.37,0,0,1,2.37.16,7.25,7.25,0,0,1,2.19.65A4.26,4.26,0,0,1,464,99.37a3.74,3.74,0,0,1,.63,2.25v8.07a16.21,16.21,0,0,0,.12,2,3.63,3.63,0,0,0,.42,1.44h-4.32a6.21,6.21,0,0,1-.2-.74,6.31,6.31,0,0,1-.1-.76,5.67,5.67,0,0,1-2.4,1.48,9.33,9.33,0,0,1-2.82.44,7.24,7.24,0,0,1-2.07-.29,4.93,4.93,0,0,1-1.68-.85,3.92,3.92,0,0,1-1.13-1.44,4.87,4.87,0,0,1-.4-2.07,4.67,4.67,0,0,1,.45-2.18,3.68,3.68,0,0,1,1.2-1.36,5.55,5.55,0,0,1,1.69-.77,17.54,17.54,0,0,1,1.94-.4q1-.15,1.89-.24a10.85,10.85,0,0,0,1.6-.27,2.9,2.9,0,0,0,1.13-.53,1.22,1.22,0,0,0,.42-1,2.28,2.28,0,0,0-.23-1.1,1.65,1.65,0,0,0-.6-.63,2.36,2.36,0,0,0-.87-.3,7.07,7.07,0,0,0-1.06-.07,3.26,3.26,0,0,0-2,.54,2.38,2.38,0,0,0-.85,1.8Zm9.84,3.15a1.93,1.93,0,0,1-.68.37,6.88,6.88,0,0,1-.87.23q-.46.09-1,.15c-.35,0-.68.09-1,.15a6.73,6.73,0,0,0-1,.24,2.86,2.86,0,0,0-.8.4,1.87,1.87,0,0,0-.55.66,2.12,2.12,0,0,0-.21,1,2,2,0,0,0,.21,1,1.64,1.64,0,0,0,.57.6,2.41,2.41,0,0,0,.84.32,5.36,5.36,0,0,0,1,.09,3.77,3.77,0,0,0,1.95-.42,2.82,2.82,0,0,0,1-1,3.18,3.18,0,0,0,.4-1.18,8.34,8.34,0,0,0,.08-1Z"/><path class="cls-1" d="M471.92,95.23h-4.26V91.72h4.26Zm-4.26,2.4h4.26v15.51h-4.26Z"/><path class="cls-1" d="M474.92,97.63H479v2.16h.09a5,5,0,0,1,2.1-2,6,6,0,0,1,2.64-.63,7.22,7.22,0,0,1,2.8.46A4.18,4.18,0,0,1,488.33,99a5,5,0,0,1,.88,2,12.54,12.54,0,0,1,.26,2.63v9.54h-4.26v-8.76a5.34,5.34,0,0,0-.62-2.87,2.32,2.32,0,0,0-2.11-.94,3,3,0,0,0-2.52,1,5.77,5.77,0,0,0-.78,3.41v8.13h-4.26Z"/><path class="cls-1" d="M495.86,106.42a4.31,4.31,0,0,0,1.05,3,4.32,4.32,0,0,0,5,.3,2.67,2.67,0,0,0,1.14-1.36h3.75a7.26,7.26,0,0,1-2.76,4,8,8,0,0,1-4.5,1.23,8.66,8.66,0,0,1-3.3-.6,7,7,0,0,1-2.49-1.68,7.5,7.5,0,0,1-1.58-2.58,9.44,9.44,0,0,1-.55-3.3,9,9,0,0,1,.57-3.24,7.47,7.47,0,0,1,4.12-4.32,8.06,8.06,0,0,1,3.23-.63A7.37,7.37,0,0,1,503,98a6.88,6.88,0,0,1,2.41,2.06,8.45,8.45,0,0,1,1.37,2.94,11,11,0,0,1,.3,3.45Zm6.93-2.7a4.93,4.93,0,0,0-1.07-2.46,3,3,0,0,0-2.32-.84,3.73,3.73,0,0,0-1.7.34,3.24,3.24,0,0,0-1.08.86,3.13,3.13,0,0,0-.57,1.08,4.85,4.85,0,0,0-.19,1Z"/><path class="cls-1" d="M509.21,97.63h4.05v2.88h.06a5.33,5.33,0,0,1,2-2.39,5.6,5.6,0,0,1,1.42-.67,5.17,5.17,0,0,1,1.55-.24,2.92,2.92,0,0,1,.93.15v4c-.2,0-.44-.08-.72-.11a7.57,7.57,0,0,0-.81,0,4.54,4.54,0,0,0-2,.39,3.43,3.43,0,0,0-1.31,1.06,4.26,4.26,0,0,0-.7,1.59,8.67,8.67,0,0,0-.21,1.94v7h-4.26Z"/><rect class="cls-2" x="54.45" y="60.04" width="83.45" height="83.45"/><polygon class="cls-3" points="96.17 60.03 54.45 101.76 96.17 101.76 96.17 60.03"/><rect class="cls-4" x="54.45" y="101.76" width="41.72" height="41.72"/><polygon class="cls-5" points="96.17 60.03 96.17 101.76 96.17 143.48 137.89 101.76 137.89 60.03 96.17 60.03"/><path class="cls-6" d="M139.14,144.73H53.2V58.79h85.94Zm-83.44-2.5h80.94V61.29H55.7Z"/></svg>